<svg xmlns="http://www.w3.org/2000/svg" width="2400" height="1350" viewBox="0 0 2400 1350" role="img" aria-label="Stucco architecture with digital tech accents">
  <defs>
    <linearGradient id="g0" x1="0" y1="0" x2="1" y2="1">
      <stop offset="0" stop-color="#05070c"/>
      <stop offset="1" stop-color="#0b1020"/>
    </linearGradient>
    <radialGradient id="goldGlow" cx="30%" cy="24%" r="70%">
      <stop offset="0" stop-color="rgba(212,175,55,.26)"/>
      <stop offset="0.55" stop-color="rgba(212,175,55,.08)"/>
      <stop offset="1" stop-color="rgba(212,175,55,0)"/>
    </radialGradient>
    <radialGradient id="blueGlow" cx="80%" cy="18%" r="70%">
      <stop offset="0" stop-color="rgba(120,180,255,.10)"/>
      <stop offset="1" stop-color="rgba(120,180,255,0)"/>
    </radialGradient>
    <filter id="blur" x="-20%" y="-20%" width="140%" height="140%">
      <feGaussianBlur stdDeviation="8"/>
    </filter>
  </defs>

  <rect width="2400" height="1350" fill="url(#g0)"/>
  <rect width="2400" height="1350" fill="url(#goldGlow)"/>
  <rect width="2400" height="1350" fill="url(#blueGlow)"/>

  <g opacity="0.8"><path d="M 1703.9 -86.5 Q 946.7 -76.3 910.4 137.4" stroke="rgba(243,210,122,0.132)" stroke-width="2.12" fill="none"/><path d="M 1536.3 666.6 Q 1655.5 496.0 2507.8 563.7" stroke="rgba(243,210,122,0.082)" stroke-width="1.90" fill="none"/><path d="M 2575.4 1248.5 Q 1913.0 712.9 1708.9 139.9" stroke="rgba(243,210,122,0.072)" stroke-width="1.03" fill="none"/><path d="M 1431.7 -15.7 Q 1767.8 504.5 1691.6 1431.3" stroke="rgba(243,210,122,0.105)" stroke-width="2.06" fill="none"/><path d="M 581.7 681.3 Q 242.1 484.9 321.3 4.1" stroke="rgba(243,210,122,0.114)" stroke-width="1.66" fill="none"/><path d="M 318.2 23.8 Q -12.3 713.7 -73.0 1301.9" stroke="rgba(243,210,122,0.128)" stroke-width="1.80" fill="none"/><path d="M 1742.5 394.0 Q 991.6 928.2 98.6 1158.8" stroke="rgba(243,210,122,0.067)" stroke-width="1.93" fill="none"/><path d="M 482.2 393.5 Q 986.0 724.9 1549.7 1201.4" stroke="rgba(243,210,122,0.108)" stroke-width="1.99" fill="none"/><path d="M 1762.0 774.5 Q 1581.3 639.9 1457.5 268.4" stroke="rgba(243,210,122,0.135)" stroke-width="1.71" fill="none"/><path d="M -36.7 173.6 Q 1082.3 -64.4 2523.6 63.4" stroke="rgba(243,210,122,0.064)" stroke-width="1.38" fill="none"/><path d="M 1362.0 649.1 Q 1234.8 257.3 441.2 50.1" stroke="rgba(243,210,122,0.075)" stroke-width="1.34" fill="none"/><path d="M 1663.8 550.7 Q 1708.4 202.1 1996.7 24.6" stroke="rgba(243,210,122,0.076)" stroke-width="1.23" fill="none"/><path d="M 2297.6 458.9 Q 2304.0 906.2 1687.0 1418.4" stroke="rgba(243,210,122,0.137)" stroke-width="2.20" fill="none"/><path d="M 276.5 442.8 Q 482.2 701.9 619.5 546.2" stroke="rgba(243,210,122,0.067)" stroke-width="2.15" fill="none"/></g>
  <g><circle cx="897.3" cy="1118.3" r="4.1" fill="rgba(212,175,55,0.118)"/><circle cx="2300.8" cy="334.0" r="5.3" fill="rgba(212,175,55,0.137)"/><circle cx="1866.3" cy="716.6" r="2.5" fill="rgba(212,175,55,0.104)"/><circle cx="458.4" cy="870.1" r="5.1" fill="rgba(212,175,55,0.054)"/><circle cx="219.2" cy="1212.2" r="2.1" fill="rgba(212,175,55,0.098)"/><circle cx="627.9" cy="387.9" r="5.1" fill="rgba(212,175,55,0.067)"/><circle cx="1493.3" cy="1335.8" r="3.4" fill="rgba(212,175,55,0.050)"/><circle cx="834.0" cy="101.6" r="2.0" fill="rgba(212,175,55,0.085)"/><circle cx="1894.6" cy="431.1" r="3.6" fill="rgba(212,175,55,0.077)"/><circle cx="2374.5" cy="577.0" r="3.5" fill="rgba(212,175,55,0.050)"/><circle cx="125.5" cy="1029.8" r="6.0" fill="rgba(212,175,55,0.056)"/><circle cx="748.3" cy="965.9" r="3.7" fill="rgba(212,175,55,0.106)"/><circle cx="1048.3" cy="269.3" r="3.1" fill="rgba(212,175,55,0.087)"/><circle cx="2355.8" cy="871.8" r="5.1" fill="rgba(212,175,55,0.066)"/><circle cx="1596.8" cy="539.0" r="2.3" fill="rgba(212,175,55,0.113)"/><circle cx="950.2" cy="51.6" r="4.5" fill="rgba(212,175,55,0.082)"/><circle cx="1352.9" cy="621.2" r="5.9" fill="rgba(212,175,55,0.122)"/><circle cx="638.9" cy="151.0" r="4.3" fill="rgba(212,175,55,0.055)"/><circle cx="1104.9" cy="66.9" r="4.1" fill="rgba(212,175,55,0.127)"/><circle cx="168.7" cy="317.8" r="2.7" fill="rgba(212,175,55,0.108)"/><circle cx="1984.5" cy="743.0" r="4.8" fill="rgba(212,175,55,0.062)"/><circle cx="1182.9" cy="1048.5" r="4.3" fill="rgba(212,175,55,0.115)"/><circle cx="1092.5" cy="923.7" r="5.8" fill="rgba(212,175,55,0.075)"/><circle cx="280.2" cy="354.8" r="4.5" fill="rgba(212,175,55,0.107)"/><circle cx="1596.7" cy="901.0" r="3.3" fill="rgba(212,175,55,0.130)"/><circle cx="2300.9" cy="1157.8" r="5.4" fill="rgba(212,175,55,0.136)"/><circle cx="2259.7" cy="162.5" r="3.6" fill="rgba(212,175,55,0.083)"/><circle cx="1154.8" cy="1053.3" r="5.5" fill="rgba(212,175,55,0.135)"/><circle cx="1713.6" cy="1012.8" r="5.8" fill="rgba(212,175,55,0.058)"/><circle cx="1409.3" cy="263.0" r="2.5" fill="rgba(212,175,55,0.122)"/><circle cx="1857.6" cy="402.9" r="5.2" fill="rgba(212,175,55,0.103)"/><circle cx="2326.2" cy="1339.4" r="3.1" fill="rgba(212,175,55,0.091)"/><circle cx="1211.2" cy="884.6" r="4.3" fill="rgba(212,175,55,0.083)"/><circle cx="339.0" cy="56.8" r="4.1" fill="rgba(212,175,55,0.132)"/><circle cx="915.6" cy="593.3" r="3.5" fill="rgba(212,175,55,0.088)"/><circle cx="2298.5" cy="282.9" r="4.0" fill="rgba(212,175,55,0.109)"/><circle cx="394.2" cy="702.5" r="5.5" fill="rgba(212,175,55,0.056)"/><circle cx="461.7" cy="272.4" r="5.9" fill="rgba(212,175,55,0.062)"/></g>

  <g filter="url(#blur)" opacity="0.9">
    <circle cx="1752.0" cy="621.0" r="210" fill="rgba(255,255,255,.04)"/>
  </g>

  <g><circle cx="1752.0" cy="621.0" r="160" fill="none" stroke="rgba(212,175,55,0.180)" stroke-width="1.2"/><circle cx="1752.0" cy="621.0" r="215" fill="none" stroke="rgba(212,175,55,0.150)" stroke-width="1.2"/><circle cx="1752.0" cy="621.0" r="270" fill="none" stroke="rgba(212,175,55,0.120)" stroke-width="1.2"/><circle cx="1752.0" cy="621.0" r="325" fill="none" stroke="rgba(212,175,55,0.090)" stroke-width="1.2"/></g>

  <g>
    <rect x="1562.0" y="555.0" width="380" height="132" rx="26" fill="rgba(255,255,255,.05)" stroke="rgba(255,255,255,.10)"/>
    <text x="1752.0" y="613.0" text-anchor="middle" font-family="ui-sans-serif,system-ui" font-size="50" fill="rgba(245,247,255,.92)" letter-spacing="2">W3</text>
    <text x="1752.0" y="655.0" text-anchor="middle" font-family="ui-sans-serif,system-ui" font-size="22" fill="rgba(245,247,255,.60)" letter-spacing="1">w3.casa</text>
  </g>

  <g opacity="0.9">
    <circle cx="432.0" cy="1053.0" r="280" fill="rgba(212,175,55,.06)"/>
    <circle cx="432.0" cy="1053.0" r="279" fill="none" stroke="rgba(255,255,255,.06)"/>
  </g>
</svg>